<svg
  xmlns="http://www.w3.org/2000/svg"
  viewBox="0 0 400 400"
  fill="currentColor"
>
  <path
    d="m199.7 58.6l-18.3 91.2c-11.2-17.6-31.6-26.6-58.2-26.6-54.7 0-96 41.6-96 99.8 0 47.4 33 75.2 75.2 75.2 22.4 0 41-7.3 55.4-19.8l-3.6 17.6h38.1l47.4-237.4zm-87.1 205.4c-28.8 0-45.1-16.3-45.1-42.9 0-37.7 24.7-64 58.6-64 28.8 0 45.1 16.3 45.1 42.9 0 37.8-24.6 64-58.6 64zm200-116.8l4.5-22.1h-38.1l-33.9 170.9h40l17-84.2c7-35.5 27.8-51.5 59.2-51.5 3.8 0 6.4 0.3 9.9 1l7.4-38.1c-28.8 0-50.3 6.1-66 24z"
  />
</svg>
